<mxfile host="app.diagrams.net" modified="2022-01-15T15:54:08.495Z" agent="5.0 (Macintosh; Intel Mac OS X 10_15_6) AppleWebKit/605.1.15 (KHTML, like Gecko) Version/15.0 Safari/605.1.15" etag="PXozOkpai4iksXgMWfM9" version="16.2.7" type="github">
  <diagram id="P-u7TevrJmw30rvIBpqp" name="Page-1">
    <mxGraphModel dx="479" dy="304" grid="1" gridSize="10" guides="1" tooltips="1" connect="1" arrows="1" fold="1" page="1" pageScale="1" pageWidth="827" pageHeight="1169" math="0" shadow="0">
      <root>
        <mxCell id="0" />
        <mxCell id="1" parent="0" />
        <mxCell id="2XjPHaZaXtyZDyfejIHx-1" value="FC" style="rounded=1;whiteSpace=wrap;html=1;" vertex="1" parent="1">
          <mxGeometry x="410" y="40" width="100" height="30" as="geometry" />
        </mxCell>
        <mxCell id="2XjPHaZaXtyZDyfejIHx-2" value="Pi" style="rounded=1;whiteSpace=wrap;html=1;arcSize=15;" vertex="1" parent="1">
          <mxGeometry x="400" y="140" width="120" height="260" as="geometry" />
        </mxCell>
        <mxCell id="2XjPHaZaXtyZDyfejIHx-3" value="Mavlink&lt;br&gt;Uart" style="endArrow=classic;startArrow=classic;html=1;rounded=0;entryX=0.5;entryY=1;entryDx=0;entryDy=0;exitX=0.5;exitY=0;exitDx=0;exitDy=0;" edge="1" parent="1" source="2XjPHaZaXtyZDyfejIHx-2" target="2XjPHaZaXtyZDyfejIHx-1">
          <mxGeometry width="50" height="50" relative="1" as="geometry">
            <mxPoint x="250" y="290" as="sourcePoint" />
            <mxPoint x="300" y="240" as="targetPoint" />
            <Array as="points" />
          </mxGeometry>
        </mxCell>
        <mxCell id="2XjPHaZaXtyZDyfejIHx-4" value="wfb_tx" style="rounded=1;whiteSpace=wrap;html=1;" vertex="1" parent="1">
          <mxGeometry x="240" y="150" width="50" height="100" as="geometry" />
        </mxCell>
        <mxCell id="2XjPHaZaXtyZDyfejIHx-5" value="UDP 5600" style="endArrow=none;startArrow=classic;html=1;rounded=0;exitX=1;exitY=0.25;exitDx=0;exitDy=0;endFill=0;entryX=0;entryY=0.135;entryDx=0;entryDy=0;entryPerimeter=0;" edge="1" parent="1" source="2XjPHaZaXtyZDyfejIHx-4" target="2XjPHaZaXtyZDyfejIHx-2">
          <mxGeometry width="50" height="50" relative="1" as="geometry">
            <mxPoint x="250" y="300" as="sourcePoint" />
            <mxPoint x="400" y="160" as="targetPoint" />
          </mxGeometry>
        </mxCell>
        <mxCell id="2XjPHaZaXtyZDyfejIHx-8" value="UDP 15550" style="endArrow=none;startArrow=classic;html=1;rounded=0;exitX=1;exitY=0.25;exitDx=0;exitDy=0;endFill=0;" edge="1" parent="1">
          <mxGeometry width="50" height="50" relative="1" as="geometry">
            <mxPoint x="290" y="200" as="sourcePoint" />
            <mxPoint x="400" y="200" as="targetPoint" />
            <Array as="points">
              <mxPoint x="360" y="200" />
            </Array>
          </mxGeometry>
        </mxCell>
        <mxCell id="2XjPHaZaXtyZDyfejIHx-9" value="UDP 16550" style="endArrow=none;startArrow=classic;html=1;rounded=0;exitX=1;exitY=0.25;exitDx=0;exitDy=0;endFill=0;" edge="1" parent="1">
          <mxGeometry width="50" height="50" relative="1" as="geometry">
            <mxPoint x="290" y="230" as="sourcePoint" />
            <mxPoint x="400" y="230" as="targetPoint" />
            <Array as="points">
              <mxPoint x="360" y="230" />
            </Array>
          </mxGeometry>
        </mxCell>
        <mxCell id="2XjPHaZaXtyZDyfejIHx-14" value="UDP 15551" style="endArrow=classic;startArrow=none;html=1;rounded=0;exitX=1;exitY=0.25;exitDx=0;exitDy=0;endFill=1;startFill=0;" edge="1" parent="1">
          <mxGeometry x="0.0909" width="50" height="50" relative="1" as="geometry">
            <mxPoint x="290" y="310.00000000000006" as="sourcePoint" />
            <mxPoint x="400" y="310.00000000000006" as="targetPoint" />
            <Array as="points" />
            <mxPoint as="offset" />
          </mxGeometry>
        </mxCell>
        <mxCell id="2XjPHaZaXtyZDyfejIHx-12" value="wfb_rx" style="rounded=1;whiteSpace=wrap;html=1;" vertex="1" parent="1">
          <mxGeometry x="240" y="280" width="50" height="100" as="geometry" />
        </mxCell>
        <mxCell id="2XjPHaZaXtyZDyfejIHx-15" value="UDP 16551" style="endArrow=classic;startArrow=none;html=1;rounded=0;exitX=1;exitY=0.25;exitDx=0;exitDy=0;endFill=1;startFill=0;" edge="1" parent="1">
          <mxGeometry width="50" height="50" relative="1" as="geometry">
            <mxPoint x="290" y="330.00000000000006" as="sourcePoint" />
            <mxPoint x="400" y="330.00000000000006" as="targetPoint" />
            <Array as="points">
              <mxPoint x="360" y="330" />
            </Array>
          </mxGeometry>
        </mxCell>
        <mxCell id="2XjPHaZaXtyZDyfejIHx-18" value="std::out" style="endArrow=classic;startArrow=none;html=1;rounded=0;exitX=1;exitY=0.25;exitDx=0;exitDy=0;endFill=1;startFill=0;" edge="1" parent="1">
          <mxGeometry width="50" height="50" relative="1" as="geometry">
            <mxPoint x="290" y="350" as="sourcePoint" />
            <mxPoint x="400" y="350" as="targetPoint" />
            <Array as="points">
              <mxPoint x="360" y="350" />
            </Array>
          </mxGeometry>
        </mxCell>
      </root>
    </mxGraphModel>
  </diagram>
</mxfile>
